<svg xmlns="http://www.w3.org/2000/svg" viewBox="0 0 180 180">
<defs><linearGradient id="bg" x1="0" y1="0" x2="0" y2="1"><stop offset="0" stop-color="#2f6bec"/><stop offset="1" stop-color="#1a45c4"/></linearGradient></defs>
<rect width="180" height="180" rx="34" fill="url(#bg)"/>
<g transform="translate(90 90) scale(1) translate(-90 -90)">
<rect x="40" y="30" width="100" height="18" rx="6" fill="#ffffff"/>
<rect x="28" y="68" width="22" height="22" rx="5" fill="#ffffff" opacity="0.95"/><rect x="62" y="68" width="22" height="22" rx="5" fill="#ffffff" opacity="0.95"/><rect x="96" y="68" width="22" height="22" rx="5" fill="#ffffff" opacity="0.95"/><rect x="130" y="68" width="22" height="22" rx="5" fill="#ffffff" opacity="0.95"/><rect x="28" y="102" width="22" height="22" rx="5" fill="#ffffff" opacity="0.95"/><rect x="62" y="102" width="22" height="22" rx="5" fill="#ffffff" opacity="0.95"/><rect x="96" y="102" width="22" height="22" rx="5" fill="#ffffff" opacity="0.95"/><rect x="130" y="102" width="22" height="22" rx="5" fill="#ffffff" opacity="0.95"/><rect x="28" y="136" width="22" height="22" rx="5" fill="#ffffff" opacity="0.95"/><rect x="62" y="136" width="22" height="22" rx="5" fill="#ffffff" opacity="0.95"/><rect x="96" y="136" width="22" height="22" rx="5" fill="#ffffff" opacity="0.95"/><rect x="130" y="136" width="22" height="22" rx="5" fill="#ffffff" opacity="0.95"/>
</g></svg>